<svg width="100" height="100" viewBox="0 0 100 100" xmlns="http://www.w3.org/2000/svg">
  <circle cx="18" cy="30" r="6" fill="none" stroke="#5aab4a" stroke-width="2"/>
  <circle cx="18" cy="50" r="6" fill="none" stroke="#5aab4a" stroke-width="2"/>
  <circle cx="18" cy="70" r="6" fill="none" stroke="#5aab4a" stroke-width="2"/>
  <circle cx="50" cy="25" r="6" fill="none" stroke="#c47840" stroke-width="2"/>
  <circle cx="50" cy="45" r="6" fill="none" stroke="#c47840" stroke-width="2"/>
  <circle cx="50" cy="65" r="6" fill="none" stroke="#c47840" stroke-width="2"/>
  <circle cx="50" cy="78" r="6" fill="none" stroke="#c47840" stroke-width="2"/>
  <circle cx="82" cy="38" r="6" fill="none" stroke="#5aab4a" stroke-width="2"/>
  <circle cx="82" cy="62" r="6" fill="none" stroke="#5aab4a" stroke-width="2"/>
  <line x1="24" y1="30" x2="44" y2="25" stroke="#3d7a3d" stroke-width="0.8" opacity="0.7"/>
  <line x1="24" y1="30" x2="44" y2="45" stroke="#3d7a3d" stroke-width="0.8" opacity="0.7"/>
  <line x1="24" y1="50" x2="44" y2="45" stroke="#3d7a3d" stroke-width="0.8" opacity="0.7"/>
  <line x1="24" y1="50" x2="44" y2="65" stroke="#3d7a3d" stroke-width="0.8" opacity="0.7"/>
  <line x1="24" y1="70" x2="44" y2="65" stroke="#3d7a3d" stroke-width="0.8" opacity="0.7"/>
  <line x1="24" y1="70" x2="44" y2="78" stroke="#3d7a3d" stroke-width="0.8" opacity="0.7"/>
  <line x1="56" y1="25" x2="76" y2="38" stroke="#3d7a3d" stroke-width="0.8" opacity="0.7"/>
  <line x1="56" y1="45" x2="76" y2="38" stroke="#3d7a3d" stroke-width="0.8" opacity="0.7"/>
  <line x1="56" y1="65" x2="76" y2="62" stroke="#3d7a3d" stroke-width="0.8" opacity="0.7"/>
  <line x1="56" y1="78" x2="76" y2="62" stroke="#3d7a3d" stroke-width="0.8" opacity="0.7"/>
</svg>